%FSLAX34Y34*%
%MOMM*%
%LNCOPPER_BOTTOM*%
G71*
G01*
%ADD10C, 2.80*%
%ADD11C, 2.50*%
%ADD12C, 1.10*%
%ADD13R, 1.27X0.65*%
%ADD14C, 0.40*%
%ADD15C, 0.50*%
%ADD16R, 1.00X1.60*%
%ADD17C, 0.00*%
%ADD18C, 2.80*%
%ADD19C, 1.00*%
%ADD20R, 2.00X1.30*%
%ADD21R, 2.00X1.60*%
%ADD22C, 2.00*%
%LPD*%
X166300Y-102800D02*
G54D10*
D03*
X217100Y-102800D02*
G54D10*
D03*
X267900Y-102800D02*
G54D10*
D03*
X318700Y-102800D02*
G54D10*
D03*
X369500Y-102800D02*
G54D10*
D03*
X420300Y-102800D02*
G54D10*
D03*
X282590Y-366872D02*
G54D11*
D03*
X174640Y-366872D02*
G54D11*
D03*
X257195Y-553560D02*
G54D11*
D03*
X152420Y-553560D02*
G54D11*
D03*
X257195Y-366870D02*
G54D11*
D03*
X149245Y-366870D02*
G54D11*
D03*
X285770Y-553560D02*
G54D11*
D03*
X177820Y-553560D02*
G54D11*
D03*
X318700Y-718750D02*
G54D12*
D03*
X471100Y-102800D02*
G54D10*
D03*
X521900Y-102800D02*
G54D10*
D03*
X572700Y-102800D02*
G54D10*
D03*
X623500Y-102800D02*
G54D10*
D03*
X674300Y-102800D02*
G54D10*
D03*
X725100Y-102800D02*
G54D10*
D03*
X775900Y-102800D02*
G54D10*
D03*
X826700Y-102800D02*
G54D10*
D03*
X877500Y-102800D02*
G54D10*
D03*
X928300Y-102800D02*
G54D10*
D03*
X166300Y-852100D02*
G54D10*
D03*
X217100Y-852100D02*
G54D10*
D03*
X267900Y-852100D02*
G54D10*
D03*
X318700Y-852100D02*
G54D10*
D03*
X369500Y-852100D02*
G54D10*
D03*
X420300Y-852100D02*
G54D10*
D03*
X674300Y-852100D02*
G54D10*
D03*
X725100Y-852100D02*
G54D10*
D03*
X775900Y-852100D02*
G54D10*
D03*
X826700Y-852100D02*
G54D10*
D03*
X877500Y-852100D02*
G54D10*
D03*
X928300Y-852100D02*
G54D10*
D03*
X134550Y-299650D02*
G54D12*
D03*
X229800Y-299650D02*
G54D12*
D03*
X198050Y-642550D02*
G54D12*
D03*
X375850Y-413950D02*
G54D12*
D03*
X464750Y-299650D02*
G54D12*
D03*
X426650Y-344100D02*
G54D12*
D03*
X521900Y-306000D02*
G54D12*
D03*
X490150Y-337750D02*
G54D12*
D03*
X523925Y-675389D02*
G54D13*
D03*
X523925Y-662689D02*
G54D13*
D03*
X523925Y-649989D02*
G54D13*
D03*
X523925Y-637289D02*
G54D13*
D03*
X473125Y-637289D02*
G54D13*
D03*
X473125Y-649989D02*
G54D13*
D03*
X473125Y-662689D02*
G54D13*
D03*
X473125Y-675389D02*
G54D13*
D03*
G54D14*
X523925Y-649989D02*
X541513Y-649989D01*
X547293Y-644209D01*
X547293Y-623747D01*
X534600Y-613322D01*
G54D14*
X523925Y-675389D02*
X546211Y-675389D01*
X560000Y-661600D01*
X560000Y-623545D01*
X571059Y-611061D01*
X604450Y-611054D01*
G54D15*
X576596Y-578093D02*
X515550Y-579050D01*
X496500Y-598100D01*
X496500Y-617150D01*
X468399Y-668404D02*
G54D16*
D03*
X467493Y-643004D02*
G54D16*
D03*
G54D15*
X523925Y-662689D02*
X513134Y-662689D01*
X496736Y-678189D01*
G54D15*
X527898Y-637240D02*
X508160Y-637240D01*
X496500Y-648900D01*
X496500Y-679323D01*
X509127Y-692901D01*
X559454Y-692857D01*
X585400Y-667950D01*
X694811Y-667950D01*
X695973Y-669112D01*
G54D14*
X695974Y-643712D02*
X585251Y-643712D01*
X577739Y-636200D01*
G54D14*
X604450Y-579050D02*
X629850Y-579050D01*
X667950Y-617150D01*
X694812Y-617150D01*
X695974Y-618312D01*
X473125Y-573789D02*
G54D13*
D03*
X473125Y-561089D02*
G54D13*
D03*
X473125Y-548389D02*
G54D13*
D03*
X473125Y-535689D02*
G54D13*
D03*
X422325Y-535689D02*
G54D13*
D03*
X422325Y-548389D02*
G54D13*
D03*
X422325Y-561089D02*
G54D13*
D03*
X422325Y-573789D02*
G54D13*
D03*
G54D14*
X473125Y-548389D02*
X490713Y-548389D01*
X496493Y-542609D01*
X496493Y-522147D01*
X483800Y-511722D01*
G54D14*
X473125Y-573789D02*
X495411Y-573789D01*
X509200Y-560000D01*
X509200Y-521945D01*
X520259Y-509461D01*
X553650Y-509454D01*
G54D15*
X525796Y-476493D02*
X464750Y-477450D01*
X445700Y-496500D01*
X445700Y-547300D01*
X418956Y-541856D02*
G54D16*
D03*
G54D15*
X473125Y-561089D02*
X462334Y-561089D01*
X445884Y-577539D01*
G54D15*
X260365Y-553562D02*
X285765Y-553562D01*
X323777Y-515550D01*
X445700Y-515550D01*
X445700Y-579050D01*
X464750Y-604450D01*
X483800Y-604450D01*
X496500Y-617150D01*
X496500Y-679323D01*
G54D14*
X526939Y-534600D02*
X610800Y-534600D01*
X667950Y-591750D01*
X694812Y-591750D01*
X695974Y-592912D01*
G54D14*
X553650Y-477450D02*
X591750Y-477450D01*
X680650Y-566350D01*
X694812Y-566350D01*
X695974Y-567512D01*
G36*
X113741Y-213887D02*
X113741Y-201887D01*
X150741Y-201887D01*
X150741Y-213887D01*
X113741Y-213887D01*
G37*
G54D17*
X113741Y-213887D02*
X113741Y-201887D01*
X150741Y-201887D01*
X150741Y-213887D01*
X113741Y-213887D01*
G36*
X113741Y-165887D02*
X113741Y-153887D01*
X150741Y-153887D01*
X150741Y-165887D01*
X113741Y-165887D01*
G37*
G54D17*
X113741Y-165887D02*
X113741Y-153887D01*
X150741Y-153887D01*
X150741Y-165887D01*
X113741Y-165887D01*
G54D14*
X285765Y-366872D02*
X260365Y-366872D01*
G36*
X480850Y-275750D02*
X489850Y-275750D01*
X489850Y-283750D01*
X480850Y-283750D01*
X480850Y-275750D01*
G37*
G54D17*
X480850Y-275750D02*
X489850Y-275750D01*
X489850Y-283750D01*
X480850Y-283750D01*
X480850Y-275750D01*
G36*
X480850Y-294750D02*
X489850Y-294750D01*
X489850Y-302750D01*
X480850Y-302750D01*
X480850Y-294750D01*
G37*
G54D17*
X480850Y-294750D02*
X489850Y-294750D01*
X489850Y-302750D01*
X480850Y-302750D01*
X480850Y-294750D01*
G36*
X501850Y-285250D02*
X510850Y-285250D01*
X510850Y-293250D01*
X501850Y-293250D01*
X501850Y-285250D01*
G37*
G54D17*
X501850Y-285250D02*
X510850Y-285250D01*
X510850Y-293250D01*
X501850Y-293250D01*
X501850Y-285250D01*
G54D14*
X618906Y-478279D02*
X624324Y-484624D01*
X680650Y-540950D01*
X694811Y-540950D01*
X695974Y-542112D01*
G54D14*
X508850Y-291750D02*
X521900Y-306000D01*
X521900Y-337750D01*
X534785Y-349344D01*
X603343Y-349343D01*
X617150Y-363150D01*
X617150Y-363296D01*
X642404Y-363296D01*
X642550Y-363150D01*
X642550Y-375850D01*
X680650Y-413950D01*
X694811Y-413950D01*
X695974Y-415112D01*
G54D14*
X553650Y-363296D02*
X578904Y-363296D01*
X579050Y-363150D01*
X579050Y-375850D01*
X591750Y-388550D01*
X629850Y-388550D01*
X680650Y-439350D01*
X694811Y-439350D01*
X695974Y-440512D01*
G36*
X442750Y-320200D02*
X451750Y-320200D01*
X451750Y-328200D01*
X442750Y-328200D01*
X442750Y-320200D01*
G37*
G54D17*
X442750Y-320200D02*
X451750Y-320200D01*
X451750Y-328200D01*
X442750Y-328200D01*
X442750Y-320200D01*
G36*
X442750Y-339200D02*
X451750Y-339200D01*
X451750Y-347200D01*
X442750Y-347200D01*
X442750Y-339200D01*
G37*
G54D17*
X442750Y-339200D02*
X451750Y-339200D01*
X451750Y-347200D01*
X442750Y-347200D01*
X442750Y-339200D01*
G36*
X463750Y-329700D02*
X472750Y-329700D01*
X472750Y-337700D01*
X463750Y-337700D01*
X463750Y-329700D01*
G37*
G54D17*
X463750Y-329700D02*
X472750Y-329700D01*
X472750Y-337700D01*
X463750Y-337700D01*
X463750Y-329700D01*
G54D14*
X693350Y-693350D02*
X661600Y-693350D01*
G54D15*
X474376Y-535886D02*
X463585Y-535886D01*
X445170Y-554302D01*
G54D15*
X286950Y-553650D02*
X344100Y-610800D01*
X344100Y-814000D01*
X369500Y-839400D01*
G54D14*
X725100Y-102800D02*
X731450Y-102800D01*
X769550Y-140900D01*
X902900Y-140900D01*
X947350Y-185350D01*
X947350Y-329939D01*
X956324Y-338912D01*
G54D14*
X674300Y-102800D02*
X674300Y-121850D01*
X706050Y-153600D01*
X896550Y-153600D01*
X934650Y-191700D01*
X934650Y-363150D01*
X955161Y-363150D01*
X956324Y-364312D01*
G54D15*
X198050Y-642550D02*
X198050Y-674300D01*
X246902Y-718232D01*
X248850Y-775900D01*
X318700Y-839400D01*
X191700Y-210750D02*
G54D18*
D03*
X191700Y-718750D02*
G54D18*
D03*
G54D14*
X877500Y-839400D02*
X877500Y-820350D01*
X775900Y-718750D01*
X509990Y-718750D01*
X466706Y-675466D01*
G54D14*
X462969Y-643004D02*
X451596Y-643004D01*
X439350Y-655250D01*
X439350Y-680650D01*
X490150Y-731450D01*
X737800Y-731450D01*
X826700Y-820350D01*
X826700Y-839400D01*
G54D14*
X418519Y-563629D02*
X418519Y-685219D01*
X490150Y-756850D01*
X712400Y-756850D01*
X775900Y-820350D01*
X775900Y-839400D01*
G54D14*
X418519Y-541404D02*
X400796Y-541404D01*
X388550Y-553650D01*
X388550Y-680650D01*
X483800Y-775900D01*
X680650Y-775900D01*
X725100Y-820350D01*
X725100Y-839400D01*
G54D15*
X166300Y-96450D02*
X166300Y-134550D01*
X140900Y-159950D01*
G54D15*
X131311Y-282179D02*
X131741Y-346198D01*
X152415Y-366872D01*
X177815Y-366872D01*
G54D14*
X471100Y-337750D02*
X509200Y-337750D01*
X534600Y-363150D01*
X553650Y-363150D01*
G54D19*
X267900Y-102800D02*
X267900Y-128200D01*
X229800Y-166300D01*
X229800Y-336307D01*
X260365Y-366872D01*
G54D19*
X217100Y-102800D02*
X166300Y-102800D01*
G54D14*
X596276Y-455648D02*
X175402Y-455648D01*
X121850Y-509200D01*
X121850Y-706050D01*
X267900Y-852100D01*
G54D14*
X697116Y-516777D02*
X680650Y-515550D01*
X606039Y-441075D01*
X171423Y-440577D01*
X102800Y-509200D01*
X102800Y-712400D01*
X217100Y-826700D01*
X217100Y-852100D01*
G54D14*
X695974Y-465912D02*
X669112Y-465912D01*
X629850Y-426650D01*
X166300Y-426650D01*
X83750Y-509200D01*
X83750Y-718750D01*
X166300Y-801300D01*
X166300Y-852100D01*
G54D14*
X445700Y-344100D02*
X426650Y-344100D01*
G54D14*
X482850Y-301250D02*
X466350Y-301250D01*
X464750Y-299650D01*
G54D14*
X369500Y-102800D02*
X369500Y-121850D01*
X388550Y-140900D01*
X502850Y-140900D01*
X521900Y-121850D01*
X521900Y-102800D01*
X521900Y-229800D01*
X483800Y-267900D01*
X483800Y-276300D01*
X482850Y-277250D01*
X455400Y-277250D01*
X445700Y-286950D01*
X445700Y-325750D01*
X444750Y-326700D01*
X131311Y-282179D02*
G54D20*
D03*
X131211Y-244579D02*
G54D20*
D03*
G54D15*
X131211Y-244579D02*
X131211Y-207417D01*
X131741Y-206887D01*
G54D15*
X318700Y-718750D02*
X248850Y-718750D01*
X902900Y-204400D02*
G54D18*
D03*
X902900Y-712400D02*
G54D18*
D03*
X415262Y-806604D02*
G54D20*
D03*
X415162Y-769004D02*
G54D20*
D03*
X447012Y-806604D02*
G54D20*
D03*
X446911Y-769004D02*
G54D20*
D03*
G54D14*
X452050Y-807650D02*
X420300Y-807650D01*
X420300Y-852100D01*
G54D14*
X439350Y-731450D02*
X420300Y-750500D01*
X420300Y-769550D01*
G54D14*
X445700Y-769550D02*
X452050Y-769550D01*
X471100Y-788600D01*
X566350Y-788600D01*
X655250Y-877500D01*
X750500Y-877500D01*
X775900Y-852100D01*
G36*
X618644Y-491561D02*
X607331Y-480247D01*
X618645Y-468934D01*
X629958Y-480248D01*
X618644Y-491561D01*
G37*
G54D17*
X618644Y-491561D02*
X607331Y-480247D01*
X618645Y-468934D01*
X629958Y-480248D01*
X618644Y-491561D01*
G36*
X598846Y-471762D02*
X587532Y-460448D01*
X598846Y-449135D01*
X610159Y-460448D01*
X598846Y-471762D01*
G37*
G54D17*
X598846Y-471762D02*
X587532Y-460448D01*
X598846Y-449135D01*
X610159Y-460448D01*
X598846Y-471762D01*
G36*
X551566Y-497834D02*
X567566Y-497834D01*
X567566Y-513834D01*
X551566Y-513834D01*
X551566Y-497834D01*
G37*
G36*
X551566Y-469834D02*
X567566Y-469834D01*
X567566Y-485834D01*
X551566Y-485834D01*
X551566Y-469834D01*
G37*
G36*
X519816Y-497834D02*
X535816Y-497834D01*
X535816Y-513834D01*
X519816Y-513834D01*
X519816Y-497834D01*
G37*
G36*
X519816Y-469834D02*
X535816Y-469834D01*
X535816Y-485834D01*
X519816Y-485834D01*
X519816Y-469834D01*
G37*
G36*
X475366Y-497834D02*
X491366Y-497834D01*
X491366Y-513834D01*
X475366Y-513834D01*
X475366Y-497834D01*
G37*
G36*
X475366Y-469834D02*
X491366Y-469834D01*
X491366Y-485834D01*
X475366Y-485834D01*
X475366Y-469834D01*
G37*
G36*
X487478Y-529652D02*
X503478Y-529652D01*
X503478Y-545652D01*
X487478Y-545652D01*
X487478Y-529652D01*
G37*
G36*
X515478Y-529652D02*
X531478Y-529652D01*
X531478Y-545652D01*
X515478Y-545652D01*
X515478Y-529652D01*
G37*
G36*
X602366Y-599434D02*
X618366Y-599434D01*
X618366Y-615434D01*
X602366Y-615434D01*
X602366Y-599434D01*
G37*
G36*
X602366Y-571434D02*
X618366Y-571434D01*
X618366Y-587434D01*
X602366Y-587434D01*
X602366Y-571434D01*
G37*
G36*
X570616Y-599434D02*
X586616Y-599434D01*
X586616Y-615434D01*
X570616Y-615434D01*
X570616Y-599434D01*
G37*
G36*
X570616Y-571434D02*
X586616Y-571434D01*
X586616Y-587434D01*
X570616Y-587434D01*
X570616Y-571434D01*
G37*
G36*
X526166Y-599434D02*
X542166Y-599434D01*
X542166Y-615434D01*
X526166Y-615434D01*
X526166Y-599434D01*
G37*
G36*
X526166Y-571434D02*
X542166Y-571434D01*
X542166Y-587434D01*
X526166Y-587434D01*
X526166Y-571434D01*
G37*
G36*
X538278Y-631253D02*
X554278Y-631253D01*
X554278Y-647253D01*
X538278Y-647253D01*
X538278Y-631253D01*
G37*
G36*
X566278Y-631252D02*
X582278Y-631252D01*
X582278Y-647252D01*
X566278Y-647252D01*
X566278Y-631252D01*
G37*
X656866Y-692696D02*
G54D21*
D03*
X656866Y-664696D02*
G54D21*
D03*
X618766Y-362496D02*
G54D21*
D03*
X618766Y-334496D02*
G54D21*
D03*
G36*
X637668Y-354655D02*
X653668Y-354655D01*
X653668Y-370655D01*
X637668Y-370655D01*
X637668Y-354655D01*
G37*
G36*
X637668Y-326655D02*
X653668Y-326655D01*
X653668Y-342655D01*
X637668Y-342655D01*
X637668Y-326655D01*
G37*
X548916Y-362496D02*
G54D21*
D03*
X548916Y-334496D02*
G54D21*
D03*
G36*
X567818Y-354655D02*
X583818Y-354655D01*
X583818Y-370655D01*
X567818Y-370655D01*
X567818Y-354655D01*
G37*
G36*
X567818Y-326655D02*
X583818Y-326655D01*
X583818Y-342655D01*
X567818Y-342655D01*
X567818Y-326655D01*
G37*
X418956Y-567256D02*
G54D16*
D03*
G54D15*
X151220Y-365670D02*
X151220Y-367120D01*
X196850Y-412750D01*
X374650Y-412750D01*
G54D14*
X553650Y-331096D02*
X642500Y-331096D01*
X642550Y-318700D01*
X655250Y-306000D01*
X712400Y-306000D01*
X782250Y-375850D01*
X900900Y-377850D01*
X928848Y-403250D01*
X928864Y-680650D01*
X940526Y-693415D01*
X953700Y-693350D01*
X696163Y-338744D02*
G54D22*
D03*
X696163Y-364144D02*
G54D22*
D03*
X696163Y-389544D02*
G54D22*
D03*
X696163Y-414944D02*
G54D22*
D03*
X696163Y-440344D02*
G54D22*
D03*
X696163Y-465744D02*
G54D22*
D03*
X696163Y-491144D02*
G54D22*
D03*
X696163Y-516544D02*
G54D22*
D03*
X696163Y-541944D02*
G54D22*
D03*
X696163Y-567344D02*
G54D22*
D03*
X696163Y-592744D02*
G54D22*
D03*
X696163Y-618144D02*
G54D22*
D03*
X696163Y-643544D02*
G54D22*
D03*
X696163Y-668944D02*
G54D22*
D03*
X696163Y-694344D02*
G54D22*
D03*
X956513Y-338744D02*
G54D22*
D03*
X956513Y-364144D02*
G54D22*
D03*
X956513Y-389544D02*
G54D22*
D03*
X956513Y-414944D02*
G54D22*
D03*
X956513Y-440344D02*
G54D22*
D03*
X956513Y-465744D02*
G54D22*
D03*
X956513Y-491144D02*
G54D22*
D03*
X956513Y-516544D02*
G54D22*
D03*
X956513Y-541944D02*
G54D22*
D03*
X956513Y-567344D02*
G54D22*
D03*
X956513Y-592744D02*
G54D22*
D03*
X956513Y-618144D02*
G54D22*
D03*
X956513Y-643544D02*
G54D22*
D03*
X956513Y-668944D02*
G54D22*
D03*
X956513Y-694344D02*
G54D22*
D03*
M02*
