%FSLAX34Y34*%
%MOMM*%
%LNSILK_BOTTOM*%
G71*
G01*
%ADD10C, 0.75*%
%ADD11C, 0.21*%
%ADD12C, 0.19*%
%ADD13C, 0.00*%
%ADD14C, 0.10*%
%ADD15C, 0.15*%
%LPD*%
X510725Y-639089D02*
G54D10*
D03*
G54D11*
X480799Y-611761D02*
X485132Y-611761D01*
X485132Y-623316D01*
X480799Y-623316D01*
X479065Y-622594D01*
X478199Y-621150D01*
X478199Y-613928D01*
X479065Y-612483D01*
X480799Y-611761D01*
G54D11*
X469822Y-611761D02*
X474155Y-611761D01*
X474155Y-623316D01*
X469822Y-623316D01*
X468088Y-622594D01*
X467222Y-621150D01*
X467222Y-613928D01*
X468088Y-612483D01*
X469822Y-611761D01*
G54D11*
X456245Y-611761D02*
X463178Y-611761D01*
X463178Y-612483D01*
X462311Y-613928D01*
X457111Y-618261D01*
X456245Y-619705D01*
X456245Y-621150D01*
X457111Y-622594D01*
X458845Y-623316D01*
X460578Y-623316D01*
X462311Y-622594D01*
X463178Y-621150D01*
G54D12*
X726372Y-645208D02*
X726372Y-649742D01*
X731094Y-649742D01*
X732983Y-648608D01*
X733928Y-646342D01*
X733928Y-644075D01*
X732983Y-641808D01*
X731094Y-640675D01*
X721650Y-640675D01*
X719761Y-641808D01*
X718816Y-644075D01*
X718816Y-646342D01*
X719761Y-648608D01*
X721650Y-649742D01*
G54D12*
X733928Y-653898D02*
X718816Y-653898D01*
X733928Y-662964D01*
X718816Y-662964D01*
G54D12*
X733928Y-672788D02*
X733928Y-667121D01*
X718816Y-667121D01*
X718816Y-672788D01*
X719761Y-675054D01*
X721650Y-676188D01*
X731094Y-676188D01*
X732983Y-675054D01*
X733928Y-672788D01*
G54D12*
X727316Y-684727D02*
X727316Y-693794D01*
G54D12*
X723539Y-689260D02*
X731094Y-689260D01*
G54D12*
X718816Y-707016D02*
X718816Y-697950D01*
X725428Y-697950D01*
X725428Y-699083D01*
X724483Y-701350D01*
X724483Y-703616D01*
X725428Y-705883D01*
X727316Y-707016D01*
X731094Y-707016D01*
X732983Y-705883D01*
X733928Y-703616D01*
X733928Y-701350D01*
X732983Y-699083D01*
X731094Y-697950D01*
X459925Y-537489D02*
G54D10*
D03*
G54D11*
X436349Y-510161D02*
X440682Y-510161D01*
X440682Y-521716D01*
X436349Y-521716D01*
X434615Y-520994D01*
X433749Y-519550D01*
X433749Y-512327D01*
X434615Y-510883D01*
X436349Y-510161D01*
G54D11*
X425372Y-510161D02*
X429705Y-510161D01*
X429705Y-521716D01*
X425372Y-521716D01*
X423638Y-520994D01*
X422772Y-519550D01*
X422772Y-512327D01*
X423638Y-510883D01*
X425372Y-510161D01*
G54D11*
X418728Y-519550D02*
X417861Y-520994D01*
X416128Y-521716D01*
X414395Y-521716D01*
X412661Y-520994D01*
X411795Y-519550D01*
X411795Y-518105D01*
X412661Y-516661D01*
X414395Y-515938D01*
X412661Y-515216D01*
X411795Y-513772D01*
X411795Y-512327D01*
X412661Y-510883D01*
X414395Y-510161D01*
X416128Y-510161D01*
X417861Y-510883D01*
X418728Y-512327D01*
G54D11*
X152335Y-187331D02*
X163890Y-187331D01*
X163890Y-181264D01*
G54D11*
X158113Y-187331D02*
X158113Y-181264D01*
G54D11*
X159557Y-177220D02*
X163890Y-172887D01*
X152335Y-172887D01*
G36*
X138211Y-272959D02*
X124211Y-272959D01*
X124211Y-262959D01*
X138211Y-262959D01*
X138211Y-272959D01*
G37*
G54D13*
X138211Y-272959D02*
X124211Y-272959D01*
X124211Y-262959D01*
X138211Y-262959D01*
X138211Y-272959D01*
G36*
X422161Y-797384D02*
X408162Y-797384D01*
X408162Y-787384D01*
X422161Y-787384D01*
X422161Y-797384D01*
G37*
G54D13*
X422161Y-797384D02*
X408162Y-797384D01*
X408162Y-787384D01*
X422161Y-787384D01*
X422161Y-797384D01*
G54D14*
X422161Y-787384D02*
X422161Y-797384D01*
X408162Y-797384D01*
X408162Y-787384D01*
X422161Y-787384D01*
G36*
X453912Y-797384D02*
X439912Y-797384D01*
X439911Y-787384D01*
X453912Y-787384D01*
X453912Y-797384D01*
G37*
G54D13*
X453912Y-797384D02*
X439912Y-797384D01*
X439911Y-787384D01*
X453912Y-787384D01*
X453912Y-797384D01*
G54D14*
X453912Y-787384D02*
X453912Y-797384D01*
X439912Y-797384D01*
X439911Y-787384D01*
X453912Y-787384D01*
G54D15*
X583289Y-460448D02*
X618644Y-495804D01*
X634201Y-480248D01*
X598846Y-444892D01*
X583289Y-460448D01*
G54D11*
X636181Y-471974D02*
X644352Y-463803D01*
X642922Y-472587D01*
X641900Y-473608D01*
X636998Y-468706D01*
G54D11*
X630870Y-466664D02*
X629849Y-467685D01*
X629440Y-469319D01*
X630053Y-469932D01*
G54D11*
X636182Y-455634D02*
X631279Y-450731D01*
X630871Y-452365D01*
X630564Y-455123D01*
X629747Y-458391D01*
X628828Y-460536D01*
X626785Y-462579D01*
G54D11*
X620249Y-456042D02*
X628420Y-447872D01*
G54D11*
X621475Y-451140D02*
X616572Y-452366D01*
G54D11*
X622292Y-454000D02*
X621168Y-447769D01*
G54D15*
X548566Y-466834D02*
X548566Y-516834D01*
X570566Y-516834D01*
X570566Y-466834D01*
X548566Y-466834D01*
G54D11*
X585039Y-517584D02*
X589372Y-513250D01*
X577816Y-513250D01*
G54D11*
X588650Y-503140D02*
X587205Y-502273D01*
X579983Y-502273D01*
X578539Y-503140D01*
X577816Y-504873D01*
X577816Y-506606D01*
X578539Y-508340D01*
X579983Y-509206D01*
X587205Y-509206D01*
X588650Y-508340D01*
X589372Y-506606D01*
X589372Y-504873D01*
X588650Y-503140D01*
G54D11*
X588650Y-492163D02*
X587205Y-491296D01*
X579983Y-491296D01*
X578539Y-492163D01*
X577816Y-493896D01*
X577816Y-495630D01*
X578539Y-497363D01*
X579983Y-498230D01*
X587205Y-498230D01*
X588650Y-497363D01*
X589372Y-495630D01*
X589372Y-493896D01*
X588650Y-492163D01*
G54D15*
X516816Y-466834D02*
X516816Y-516834D01*
X538816Y-516834D01*
X538816Y-466834D01*
X516816Y-466834D01*
G54D11*
X527889Y-466784D02*
X532222Y-462450D01*
X520666Y-462450D01*
G54D11*
X531500Y-452340D02*
X530055Y-451473D01*
X522833Y-451473D01*
X521389Y-452340D01*
X520666Y-454073D01*
X520666Y-455806D01*
X521389Y-457540D01*
X522833Y-458406D01*
X530055Y-458406D01*
X531500Y-457540D01*
X532222Y-455806D01*
X532222Y-454073D01*
X531500Y-452340D01*
G54D11*
X520666Y-447430D02*
X532222Y-447430D01*
G54D11*
X525000Y-444830D02*
X520666Y-442230D01*
G54D11*
X523555Y-447430D02*
X527166Y-442230D01*
G54D15*
X472366Y-466834D02*
X472366Y-516834D01*
X494366Y-516834D01*
X494366Y-466834D01*
X472366Y-466834D01*
G54D11*
X483439Y-466784D02*
X487772Y-462450D01*
X476216Y-462450D01*
G54D11*
X487050Y-452340D02*
X485605Y-451473D01*
X478383Y-451473D01*
X476939Y-452340D01*
X476216Y-454073D01*
X476216Y-455806D01*
X476939Y-457540D01*
X478383Y-458406D01*
X485605Y-458406D01*
X487050Y-457540D01*
X487772Y-455806D01*
X487772Y-454073D01*
X487050Y-452340D01*
G54D11*
X476216Y-447430D02*
X487772Y-447430D01*
G54D11*
X480550Y-444830D02*
X476216Y-442230D01*
G54D11*
X479105Y-447430D02*
X482716Y-442230D01*
G54D15*
X534478Y-526652D02*
X484478Y-526652D01*
X484478Y-548652D01*
X534478Y-548652D01*
X534478Y-526652D01*
G54D11*
X512742Y-560262D02*
X508409Y-555928D01*
X508409Y-567484D01*
G54D11*
X498298Y-556650D02*
X497432Y-558095D01*
X497432Y-565317D01*
X498298Y-566762D01*
X500032Y-567484D01*
X501765Y-567484D01*
X503498Y-566762D01*
X504365Y-565317D01*
X504365Y-558095D01*
X503498Y-556650D01*
X501765Y-555928D01*
X500032Y-555928D01*
X498298Y-556650D01*
G54D11*
X487321Y-556650D02*
X486455Y-558095D01*
X486455Y-565317D01*
X487321Y-566762D01*
X489055Y-567484D01*
X490788Y-567484D01*
X492521Y-566762D01*
X493388Y-565317D01*
X493388Y-558095D01*
X492521Y-556650D01*
X490788Y-555928D01*
X489055Y-555928D01*
X487321Y-556650D01*
G54D15*
X599366Y-568434D02*
X599366Y-618434D01*
X621366Y-618434D01*
X621366Y-568434D01*
X599366Y-568434D01*
G54D11*
X635839Y-619184D02*
X640172Y-614850D01*
X628616Y-614850D01*
G54D11*
X639450Y-604740D02*
X638005Y-603873D01*
X630783Y-603873D01*
X629339Y-604740D01*
X628616Y-606473D01*
X628616Y-608206D01*
X629339Y-609940D01*
X630783Y-610806D01*
X638005Y-610806D01*
X639450Y-609940D01*
X640172Y-608206D01*
X640172Y-606473D01*
X639450Y-604740D01*
G54D11*
X639450Y-593763D02*
X638005Y-592896D01*
X630783Y-592896D01*
X629339Y-593763D01*
X628616Y-595496D01*
X628616Y-597230D01*
X629339Y-598963D01*
X630783Y-599830D01*
X638005Y-599830D01*
X639450Y-598963D01*
X640172Y-597230D01*
X640172Y-595496D01*
X639450Y-593763D01*
G54D15*
X567616Y-568434D02*
X567616Y-618434D01*
X589616Y-618434D01*
X589616Y-568434D01*
X567616Y-568434D01*
G54D11*
X578688Y-568384D02*
X583022Y-564050D01*
X571466Y-564050D01*
G54D11*
X582300Y-553940D02*
X580855Y-553073D01*
X573633Y-553073D01*
X572188Y-553940D01*
X571466Y-555673D01*
X571466Y-557406D01*
X572188Y-559140D01*
X573633Y-560006D01*
X580855Y-560006D01*
X582300Y-559140D01*
X583022Y-557406D01*
X583022Y-555673D01*
X582300Y-553940D01*
G54D11*
X571466Y-549030D02*
X583022Y-549030D01*
G54D11*
X575800Y-546430D02*
X571466Y-543830D01*
G54D11*
X574355Y-549030D02*
X577966Y-543830D01*
G54D15*
X523166Y-568434D02*
X523166Y-618434D01*
X545166Y-618434D01*
X545166Y-568434D01*
X523166Y-568434D01*
G54D11*
X546939Y-568384D02*
X551272Y-564050D01*
X539716Y-564050D01*
G54D11*
X550550Y-553940D02*
X549105Y-553073D01*
X541883Y-553073D01*
X540439Y-553940D01*
X539716Y-555673D01*
X539716Y-557406D01*
X540439Y-559140D01*
X541883Y-560006D01*
X549105Y-560006D01*
X550550Y-559140D01*
X551272Y-557406D01*
X551272Y-555673D01*
X550550Y-553940D01*
G54D11*
X539716Y-549030D02*
X551272Y-549030D01*
G54D11*
X544050Y-546430D02*
X539716Y-543830D01*
G54D11*
X542605Y-549030D02*
X546216Y-543830D01*
G54D15*
X585278Y-628252D02*
X535278Y-628252D01*
X535278Y-650253D01*
X585278Y-650252D01*
X585278Y-628252D01*
G54D11*
X563542Y-661862D02*
X559209Y-657528D01*
X559209Y-669084D01*
G54D11*
X549098Y-658250D02*
X548232Y-659695D01*
X548232Y-666917D01*
X549098Y-668362D01*
X550832Y-669084D01*
X552565Y-669084D01*
X554298Y-668362D01*
X555165Y-666917D01*
X555165Y-659695D01*
X554298Y-658250D01*
X552565Y-657528D01*
X550832Y-657528D01*
X549098Y-658250D01*
G54D11*
X538121Y-658250D02*
X537255Y-659695D01*
X537255Y-666917D01*
X538121Y-668362D01*
X539855Y-669084D01*
X541588Y-669084D01*
X543321Y-668362D01*
X544188Y-666917D01*
X544188Y-659695D01*
X543321Y-658250D01*
X541588Y-657528D01*
X539855Y-657528D01*
X538121Y-658250D01*
G54D15*
X643866Y-653696D02*
X643866Y-703696D01*
X669866Y-703696D01*
X669866Y-653696D01*
X643866Y-653696D01*
G54D11*
X637149Y-698380D02*
X635705Y-697513D01*
X628482Y-697513D01*
X627038Y-698380D01*
X626316Y-700113D01*
X626316Y-701846D01*
X627038Y-703580D01*
X628483Y-704446D01*
X635705Y-704446D01*
X637149Y-703580D01*
X637871Y-701846D01*
X637871Y-700113D01*
X637149Y-698380D01*
G54D11*
X626894Y-692776D02*
X626316Y-692776D01*
X626316Y-693469D01*
X626894Y-693469D01*
X626894Y-692776D01*
G54D11*
X626316Y-692776D02*
X626316Y-693469D01*
G54D11*
X633538Y-688732D02*
X637871Y-684399D01*
X626316Y-684399D01*
G54D11*
X626316Y-680355D02*
X632816Y-680355D01*
G54D11*
X631660Y-680355D02*
X632816Y-678622D01*
X632383Y-676888D01*
X631371Y-676022D01*
X626316Y-676022D01*
G54D11*
X631660Y-676022D02*
X632816Y-674288D01*
X632383Y-672555D01*
X631371Y-671688D01*
X626316Y-671688D01*
G54D11*
X626316Y-667644D02*
X637871Y-667644D01*
G54D11*
X630649Y-665044D02*
X626316Y-662444D01*
G54D11*
X629205Y-667644D02*
X632816Y-662444D01*
G54D15*
X605766Y-323496D02*
X605766Y-373496D01*
X631766Y-373496D01*
X631766Y-323496D01*
X605766Y-323496D01*
G54D11*
X624449Y-311030D02*
X623005Y-310163D01*
X615782Y-310163D01*
X614338Y-311030D01*
X613616Y-312763D01*
X613616Y-314496D01*
X614338Y-316230D01*
X615783Y-317096D01*
X623005Y-317096D01*
X624449Y-316230D01*
X625171Y-314496D01*
X625171Y-312763D01*
X624449Y-311030D01*
G54D11*
X614194Y-305426D02*
X613616Y-305426D01*
X613616Y-306119D01*
X614194Y-306119D01*
X614194Y-305426D01*
G54D11*
X613616Y-305426D02*
X613616Y-306119D01*
G54D11*
X620838Y-301382D02*
X625171Y-297049D01*
X613616Y-297049D01*
G54D11*
X613616Y-293005D02*
X620116Y-293005D01*
G54D11*
X618960Y-293005D02*
X620116Y-291272D01*
X619683Y-289538D01*
X618671Y-288672D01*
X613616Y-288672D01*
G54D11*
X618960Y-288672D02*
X620116Y-286938D01*
X619683Y-285205D01*
X618671Y-284338D01*
X613616Y-284338D01*
G54D11*
X613616Y-280294D02*
X625171Y-280294D01*
G54D11*
X617949Y-277694D02*
X613616Y-275094D01*
G54D11*
X616505Y-280294D02*
X620116Y-275094D01*
G54D15*
X634668Y-323655D02*
X634668Y-373655D01*
X656668Y-373655D01*
X656668Y-323655D01*
X634668Y-323655D01*
G54D11*
X675473Y-367471D02*
X675473Y-374405D01*
X670418Y-374405D01*
X670418Y-373538D01*
X671140Y-371805D01*
X671140Y-370072D01*
X670418Y-368338D01*
X668973Y-367472D01*
X666084Y-367472D01*
X664640Y-368338D01*
X663918Y-370071D01*
X663918Y-371805D01*
X664640Y-373538D01*
X666084Y-374405D01*
G54D11*
X664495Y-362734D02*
X663918Y-362734D01*
X663918Y-363428D01*
X664495Y-363428D01*
X664495Y-362734D01*
G54D11*
X663918Y-362734D02*
X663918Y-363428D01*
G54D11*
X673306Y-351757D02*
X674751Y-352624D01*
X675473Y-354358D01*
X675473Y-356091D01*
X674751Y-357824D01*
X673306Y-358691D01*
X669695Y-358691D01*
X668973Y-358691D01*
X670418Y-356091D01*
X670418Y-354358D01*
X669695Y-352624D01*
X668251Y-351757D01*
X666084Y-351757D01*
X664640Y-352624D01*
X663918Y-354358D01*
X663918Y-356091D01*
X664640Y-357824D01*
X666084Y-358691D01*
X669695Y-358691D01*
G54D11*
X663918Y-347714D02*
X675473Y-347714D01*
G54D11*
X668251Y-345114D02*
X663918Y-342514D01*
G54D11*
X666806Y-347714D02*
X670418Y-342514D01*
G54D15*
X535916Y-323496D02*
X535916Y-373496D01*
X561916Y-373496D01*
X561916Y-323496D01*
X535916Y-323496D01*
G54D11*
X554599Y-311030D02*
X553155Y-310163D01*
X545932Y-310163D01*
X544488Y-311030D01*
X543766Y-312763D01*
X543766Y-314496D01*
X544488Y-316230D01*
X545933Y-317096D01*
X553155Y-317096D01*
X554599Y-316230D01*
X555321Y-314496D01*
X555321Y-312763D01*
X554599Y-311030D01*
G54D11*
X544344Y-305426D02*
X543766Y-305426D01*
X543766Y-306119D01*
X544344Y-306119D01*
X544344Y-305426D01*
G54D11*
X543766Y-305426D02*
X543766Y-306119D01*
G54D11*
X550988Y-301382D02*
X555321Y-297049D01*
X543766Y-297049D01*
G54D11*
X543766Y-293005D02*
X550266Y-293005D01*
G54D11*
X549110Y-293005D02*
X550266Y-291272D01*
X549833Y-289538D01*
X548821Y-288672D01*
X543766Y-288672D01*
G54D11*
X549110Y-288672D02*
X550266Y-286938D01*
X549833Y-285205D01*
X548821Y-284338D01*
X543766Y-284338D01*
G54D11*
X543766Y-280294D02*
X555321Y-280294D01*
G54D11*
X548099Y-277694D02*
X543766Y-275094D01*
G54D11*
X546655Y-280294D02*
X550266Y-275094D01*
G54D15*
X564818Y-323655D02*
X564818Y-373655D01*
X586818Y-373655D01*
X586818Y-323655D01*
X564818Y-323655D01*
G54D11*
X605623Y-367471D02*
X605623Y-374405D01*
X600568Y-374405D01*
X600568Y-373538D01*
X601290Y-371805D01*
X601290Y-370072D01*
X600568Y-368338D01*
X599123Y-367472D01*
X596234Y-367472D01*
X594790Y-368338D01*
X594068Y-370071D01*
X594068Y-371805D01*
X594790Y-373538D01*
X596234Y-374405D01*
G54D11*
X594645Y-362734D02*
X594068Y-362734D01*
X594068Y-363428D01*
X594645Y-363428D01*
X594645Y-362734D01*
G54D11*
X594068Y-362734D02*
X594068Y-363428D01*
G54D11*
X603456Y-351757D02*
X604901Y-352624D01*
X605623Y-354358D01*
X605623Y-356091D01*
X604901Y-357824D01*
X603456Y-358691D01*
X599845Y-358691D01*
X599123Y-358691D01*
X600568Y-356091D01*
X600568Y-354358D01*
X599845Y-352624D01*
X598401Y-351757D01*
X596234Y-351757D01*
X594790Y-352624D01*
X594068Y-354358D01*
X594068Y-356091D01*
X594790Y-357824D01*
X596234Y-358691D01*
X599845Y-358691D01*
G54D11*
X594068Y-347714D02*
X605623Y-347714D01*
G54D11*
X598401Y-345114D02*
X594068Y-342514D01*
G54D11*
X596956Y-347714D02*
X600568Y-342514D01*
M02*
