; Drill file
; Format: 2.4 (00.0000)
M48
INCH
T01C0.0197
T02C0.0354
T03C0.0433
T04C0.0512
T05C0.0886
%
G05
G90
T01
X007800Y-025300
X012550Y-028300
X014800Y-016300
X016800Y-013550
X018300Y-011800
X019300Y-013300
X020550Y-012050
X009050Y-011800
X005300Y-011800
T02
X006000Y-021790
X007000Y-021790
X010130Y-021790
X011250Y-021790
X011130Y-014440
X010130Y-014440
X006880Y-014440
X005880Y-014440
T03
X027400Y-027350
X027400Y-026350
X027400Y-025350
X027400Y-024350
X027400Y-023350
X027400Y-022350
X027400Y-021350
X027400Y-020350
X027400Y-019350
X027400Y-018350
X027400Y-017350
X027400Y-016350
X027400Y-015350
X027400Y-014350
X027400Y-013350
X037650Y-013350
X037650Y-014350
X037650Y-015350
X037650Y-016350
X037650Y-017350
X037650Y-018350
X037650Y-019350
X037650Y-020350
X037650Y-021350
X037650Y-022350
X037650Y-023350
X037650Y-024350
X037650Y-025350
X037650Y-026350
X037650Y-027350
T04
X006550Y-033550
X008550Y-033550
X010550Y-033550
X012550Y-033550
X014550Y-033550
X016550Y-033550
X026550Y-033550
X028550Y-033550
X030550Y-033550
X032550Y-033550
X034550Y-033550
X036550Y-033550
X036550Y-004050
X034550Y-004050
X032550Y-004050
X030550Y-004050
X028550Y-004050
X026550Y-004050
X024550Y-004050
X022550Y-004050
X020550Y-004050
X018550Y-004050
X016550Y-004050
X014550Y-004050
X012550Y-004050
X010550Y-004050
X008550Y-004050
X006550Y-004050
T05
X007550Y-028300
X007550Y-008300
X035550Y-008050
X035550Y-028050
M30
