%FSLAX34Y34*%
%MOMM*%
%LNSOLDERMASK_TOP*%
G71*
G01*
%ADD10C, 3.40*%
%ADD11C, 3.10*%
%ADD12R, 1.70X2.00*%
%ADD13C, 0.30*%
%ADD14R, 4.30X2.00*%
%ADD15R, 1.90X2.30*%
%ADD16R, 3.30X1.30*%
%ADD17R, 2.30X1.60*%
%ADD18R, 1.80X3.30*%
%ADD19R, 5.30X2.00*%
%ADD20C, 2.60*%
%LPD*%
X166300Y-102800D02*
G54D10*
D03*
X217100Y-102800D02*
G54D10*
D03*
X267900Y-102800D02*
G54D10*
D03*
X318700Y-102800D02*
G54D10*
D03*
X369500Y-102800D02*
G54D10*
D03*
X420300Y-102800D02*
G54D10*
D03*
X282590Y-366872D02*
G54D11*
D03*
X174640Y-366872D02*
G54D11*
D03*
X257195Y-553560D02*
G54D11*
D03*
X152420Y-553560D02*
G54D11*
D03*
X257195Y-366870D02*
G54D11*
D03*
X149245Y-366870D02*
G54D11*
D03*
X285770Y-553560D02*
G54D11*
D03*
X177820Y-553560D02*
G54D11*
D03*
X471100Y-102800D02*
G54D10*
D03*
X521900Y-102800D02*
G54D10*
D03*
X572700Y-102800D02*
G54D10*
D03*
X623500Y-102800D02*
G54D10*
D03*
X674300Y-102800D02*
G54D10*
D03*
X725100Y-102800D02*
G54D10*
D03*
X775900Y-102800D02*
G54D10*
D03*
X826700Y-102800D02*
G54D10*
D03*
X877500Y-102800D02*
G54D10*
D03*
X928300Y-102800D02*
G54D10*
D03*
X166300Y-852100D02*
G54D10*
D03*
X217100Y-852100D02*
G54D10*
D03*
X267900Y-852100D02*
G54D10*
D03*
X318700Y-852100D02*
G54D10*
D03*
X369500Y-852100D02*
G54D10*
D03*
X420300Y-852100D02*
G54D10*
D03*
X674300Y-852100D02*
G54D10*
D03*
X725100Y-852100D02*
G54D10*
D03*
X775900Y-852100D02*
G54D10*
D03*
X826700Y-852100D02*
G54D10*
D03*
X877500Y-852100D02*
G54D10*
D03*
X928300Y-852100D02*
G54D10*
D03*
X329452Y-397557D02*
G54D12*
D03*
G36*
X345451Y-389057D02*
X359451Y-389056D01*
X359452Y-406056D01*
X345452Y-406057D01*
X345451Y-389057D01*
G37*
G54D13*
X345451Y-389057D02*
X359451Y-389056D01*
X359452Y-406056D01*
X345452Y-406057D01*
X345451Y-389057D01*
X375451Y-397556D02*
G54D12*
D03*
X352452Y-332557D02*
G54D14*
D03*
X337750Y-442525D02*
G54D15*
D03*
X365750Y-442525D02*
G54D15*
D03*
X337750Y-226625D02*
G54D15*
D03*
X365750Y-226625D02*
G54D15*
D03*
X337750Y-188525D02*
G54D15*
D03*
X365750Y-188525D02*
G54D15*
D03*
X361093Y-284412D02*
G54D16*
D03*
X311093Y-284412D02*
G54D16*
D03*
X159280Y-285026D02*
G54D16*
D03*
X209280Y-285026D02*
G54D16*
D03*
X194239Y-627792D02*
G54D16*
D03*
X244239Y-627792D02*
G54D16*
D03*
X597455Y-772401D02*
G54D17*
D03*
X597555Y-810001D02*
G54D17*
D03*
X565705Y-772401D02*
G54D17*
D03*
X565805Y-810001D02*
G54D17*
D03*
X533955Y-772401D02*
G54D17*
D03*
X534055Y-810001D02*
G54D17*
D03*
X502205Y-772401D02*
G54D17*
D03*
X502305Y-810001D02*
G54D17*
D03*
X413950Y-420300D02*
G54D18*
D03*
X426650Y-420300D02*
G54D18*
D03*
X439350Y-420300D02*
G54D18*
D03*
X452050Y-420300D02*
G54D18*
D03*
X528250Y-420300D02*
G54D18*
D03*
X540950Y-420300D02*
G54D18*
D03*
X547300Y-420300D02*
G54D18*
D03*
X560000Y-420300D02*
G54D18*
D03*
X140900Y-369500D02*
G54D18*
D03*
X153600Y-369500D02*
G54D18*
D03*
X166300Y-369500D02*
G54D18*
D03*
X179000Y-369500D02*
G54D18*
D03*
X248850Y-369500D02*
G54D18*
D03*
X261550Y-369500D02*
G54D18*
D03*
X274250Y-369500D02*
G54D18*
D03*
X286950Y-369500D02*
G54D18*
D03*
X140900Y-553650D02*
G54D18*
D03*
X153600Y-553650D02*
G54D18*
D03*
X166300Y-553650D02*
G54D18*
D03*
X179000Y-553650D02*
G54D18*
D03*
X248850Y-553650D02*
G54D18*
D03*
X261550Y-553650D02*
G54D18*
D03*
X274250Y-553650D02*
G54D18*
D03*
X286950Y-553650D02*
G54D18*
D03*
X185294Y-627862D02*
G54D19*
D03*
X253149Y-627862D02*
G54D19*
D03*
X149015Y-284836D02*
G54D19*
D03*
X216871Y-284836D02*
G54D19*
D03*
X301254Y-282597D02*
G54D19*
D03*
X369110Y-282597D02*
G54D19*
D03*
G36*
X827179Y-293861D02*
X849179Y-293861D01*
X849179Y-315861D01*
X827179Y-315861D01*
X827179Y-293861D01*
G37*
G36*
X855179Y-293861D02*
X877179Y-293861D01*
X877179Y-315861D01*
X855179Y-315861D01*
X855179Y-293861D01*
G37*
G36*
X462387Y-171550D02*
X484387Y-171550D01*
X484387Y-193550D01*
X462387Y-193550D01*
X462387Y-171550D01*
G37*
G36*
X462387Y-199550D02*
X484387Y-199550D01*
X484387Y-221550D01*
X462387Y-221550D01*
X462387Y-199550D01*
G37*
G36*
X411587Y-171550D02*
X433587Y-171550D01*
X433587Y-193550D01*
X411587Y-193550D01*
X411587Y-171550D01*
G37*
G36*
X411587Y-199550D02*
X433587Y-199550D01*
X433587Y-221550D01*
X411587Y-221550D01*
X411587Y-199550D01*
G37*
X696163Y-338744D02*
G54D20*
D03*
X696163Y-364144D02*
G54D20*
D03*
X696163Y-389544D02*
G54D20*
D03*
X696163Y-414944D02*
G54D20*
D03*
X696163Y-440344D02*
G54D20*
D03*
X696163Y-465744D02*
G54D20*
D03*
X696163Y-491144D02*
G54D20*
D03*
X696163Y-516544D02*
G54D20*
D03*
X696163Y-541944D02*
G54D20*
D03*
X696163Y-567344D02*
G54D20*
D03*
X696163Y-592744D02*
G54D20*
D03*
X696163Y-618144D02*
G54D20*
D03*
X696163Y-643544D02*
G54D20*
D03*
X696163Y-668944D02*
G54D20*
D03*
X696163Y-694344D02*
G54D20*
D03*
X956513Y-338744D02*
G54D20*
D03*
X956513Y-364144D02*
G54D20*
D03*
X956513Y-389544D02*
G54D20*
D03*
X956513Y-414944D02*
G54D20*
D03*
X956513Y-440344D02*
G54D20*
D03*
X956513Y-465744D02*
G54D20*
D03*
X956513Y-491144D02*
G54D20*
D03*
X956513Y-516544D02*
G54D20*
D03*
X956513Y-541944D02*
G54D20*
D03*
X956513Y-567344D02*
G54D20*
D03*
X956513Y-592744D02*
G54D20*
D03*
X956513Y-618144D02*
G54D20*
D03*
X956513Y-643544D02*
G54D20*
D03*
X956513Y-668944D02*
G54D20*
D03*
X956513Y-694344D02*
G54D20*
D03*
M02*
