%FSLAX34Y34*%
%MOMM*%
%LNSILK_TOP*%
G71*
G01*
%ADD10C, 0.33*%
%ADD11C, 0.17*%
%ADD12C, 0.27*%
%ADD13C, 0.22*%
%ADD14C, 0.15*%
%ADD15C, 0.21*%
%ADD16C, 0.00*%
%LPD*%
G54D10*
X278230Y-159045D02*
X262230Y-159045D01*
G54D11*
X223291Y-156207D02*
X228291Y-151207D01*
X228291Y-164540D01*
G54D11*
X239958Y-164540D02*
X231958Y-164540D01*
X231958Y-163707D01*
X232958Y-162040D01*
X238958Y-157040D01*
X239958Y-155373D01*
X239958Y-153707D01*
X238958Y-152040D01*
X236958Y-151207D01*
X234958Y-151207D01*
X232958Y-152040D01*
X231958Y-153707D01*
G54D11*
X243625Y-157040D02*
X247625Y-164540D01*
X251625Y-157040D01*
G54D10*
X190397Y-159162D02*
X206397Y-159162D01*
G54D10*
X198397Y-165828D02*
X198397Y-152495D01*
G54D12*
X611215Y-198367D02*
X611215Y-195700D01*
X627215Y-195700D01*
X627215Y-198367D01*
G54D12*
X614415Y-195700D02*
X614415Y-181033D01*
X619215Y-177033D01*
X624015Y-177033D01*
X624015Y-195700D01*
G54D12*
X633082Y-186367D02*
X633082Y-198367D01*
X642682Y-186367D01*
X642682Y-198367D01*
G54D12*
X656549Y-187167D02*
X653349Y-186367D01*
X650149Y-187167D01*
X648549Y-189833D01*
X648549Y-195167D01*
X650149Y-197833D01*
X653349Y-198367D01*
X656549Y-197833D01*
G54D12*
X662416Y-198367D02*
X662416Y-186367D01*
X672016Y-186367D01*
X672016Y-198367D01*
G54D12*
X677883Y-198367D02*
X679483Y-197033D01*
X679483Y-189033D01*
X682683Y-186367D01*
X687483Y-186367D01*
X687483Y-198367D01*
G54D12*
X702950Y-197033D02*
X700390Y-198367D01*
X697190Y-198367D01*
X693990Y-197033D01*
X693350Y-194367D01*
X693350Y-189833D01*
X694950Y-187167D01*
X698150Y-186367D01*
X701350Y-187167D01*
X702950Y-189033D01*
X702950Y-191700D01*
X693350Y-191700D01*
G54D12*
X708817Y-186367D02*
X708817Y-198367D01*
X718417Y-186367D01*
X718417Y-198367D01*
G54D12*
X713617Y-185033D02*
X713617Y-183700D01*
G54D12*
X186064Y-770461D02*
X186064Y-749128D01*
X198864Y-749128D01*
X198864Y-770461D01*
G54D12*
X204731Y-758461D02*
X204731Y-775794D01*
G54D12*
X204731Y-766461D02*
X206331Y-769928D01*
X209531Y-770461D01*
X212731Y-769928D01*
X214331Y-767261D01*
X214331Y-761928D01*
X212731Y-759261D01*
X209531Y-758461D01*
X206331Y-759261D01*
X204731Y-762461D01*
G54D12*
X220198Y-758461D02*
X220198Y-770461D01*
X229798Y-758461D01*
X229798Y-770461D01*
G54D12*
X235665Y-770461D02*
X235665Y-758461D01*
G54D12*
X235665Y-763794D02*
X245265Y-763794D01*
G54D12*
X245265Y-770461D02*
X245265Y-758461D01*
G54D12*
X251132Y-758461D02*
X260732Y-758461D01*
G54D12*
X255932Y-770461D02*
X255932Y-758461D01*
G54D12*
X276199Y-769128D02*
X273639Y-770461D01*
X270439Y-770461D01*
X267239Y-769128D01*
X266599Y-766461D01*
X266599Y-761928D01*
X268199Y-759261D01*
X271399Y-758461D01*
X274599Y-759261D01*
X276199Y-761128D01*
X276199Y-763794D01*
X266599Y-763794D01*
G54D12*
X282066Y-758461D02*
X282066Y-775794D01*
G54D12*
X282066Y-766461D02*
X283666Y-769928D01*
X286866Y-770461D01*
X290066Y-769928D01*
X291666Y-767261D01*
X291666Y-761928D01*
X290066Y-759261D01*
X286866Y-758461D01*
X283666Y-759261D01*
X282066Y-762461D01*
G54D11*
X407857Y-153855D02*
X407857Y-164689D01*
G54D11*
X407857Y-158855D02*
X408857Y-161022D01*
X410857Y-161355D01*
X412857Y-161022D01*
X413857Y-159355D01*
X413857Y-156022D01*
X412857Y-154355D01*
X410857Y-153855D01*
X408857Y-154355D01*
X407857Y-156355D01*
G54D11*
X417524Y-161355D02*
X417524Y-153855D01*
G54D11*
X417524Y-155522D02*
X419524Y-153855D01*
X421524Y-153855D01*
G54D11*
X432191Y-148855D02*
X433191Y-150522D01*
X433191Y-158855D01*
X432191Y-160522D01*
X430191Y-161355D01*
X428191Y-161355D01*
X426191Y-160522D01*
X425191Y-158855D01*
X425191Y-150522D01*
X426191Y-148855D01*
X428191Y-148022D01*
X430191Y-148022D01*
X432191Y-148855D01*
G54D11*
X355612Y-155410D02*
X363612Y-155410D01*
G54D11*
X359612Y-152077D02*
X359612Y-158743D01*
G54D11*
X375279Y-147910D02*
X367279Y-147910D01*
X367279Y-153743D01*
X368279Y-153743D01*
X370279Y-152910D01*
X372279Y-152910D01*
X374279Y-153743D01*
X375279Y-155410D01*
X375279Y-158743D01*
X374279Y-160410D01*
X372279Y-161243D01*
X370279Y-161243D01*
X368279Y-160410D01*
X367279Y-158743D01*
G54D11*
X378946Y-153743D02*
X382946Y-161243D01*
X386946Y-153743D01*
G54D11*
X462007Y-153743D02*
X462007Y-164577D01*
G54D11*
X462007Y-158743D02*
X463007Y-160910D01*
X465007Y-161243D01*
X467007Y-160910D01*
X468007Y-159243D01*
X468007Y-155910D01*
X467007Y-154243D01*
X465007Y-153743D01*
X463007Y-154243D01*
X462007Y-156243D01*
G54D11*
X471674Y-161243D02*
X471674Y-153743D01*
G54D11*
X471674Y-155410D02*
X473674Y-153743D01*
X475674Y-153743D01*
G54D11*
X479341Y-152910D02*
X484341Y-147910D01*
X484341Y-161243D01*
G54D10*
X329030Y-159045D02*
X313030Y-159045D01*
G54D10*
X152297Y-159162D02*
X168297Y-159162D01*
G54D10*
X160297Y-165828D02*
X160297Y-152495D01*
G54D11*
X508012Y-155410D02*
X516012Y-155410D01*
G54D11*
X512012Y-152077D02*
X512012Y-158743D01*
G54D11*
X527679Y-147910D02*
X519679Y-147910D01*
X519679Y-153743D01*
X520679Y-153743D01*
X522679Y-152910D01*
X524679Y-152910D01*
X526679Y-153743D01*
X527679Y-155410D01*
X527679Y-158743D01*
X526679Y-160410D01*
X524679Y-161243D01*
X522679Y-161243D01*
X520679Y-160410D01*
X519679Y-158743D01*
G54D11*
X531346Y-153743D02*
X535346Y-161243D01*
X539346Y-153743D01*
G54D11*
X610940Y-155449D02*
X618940Y-155449D01*
G54D11*
X614940Y-152116D02*
X614940Y-158782D01*
G54D11*
X630606Y-147949D02*
X622606Y-147949D01*
X622606Y-153782D01*
X623606Y-153782D01*
X625606Y-152949D01*
X627606Y-152949D01*
X629606Y-153782D01*
X630606Y-155449D01*
X630606Y-158782D01*
X629606Y-160449D01*
X627606Y-161282D01*
X625606Y-161282D01*
X623606Y-160449D01*
X622606Y-158782D01*
G54D11*
X634274Y-153782D02*
X638274Y-161282D01*
X642274Y-153782D01*
G54D11*
X672224Y-154652D02*
X675224Y-156318D01*
X676224Y-157985D01*
X676224Y-161318D01*
G54D11*
X668224Y-161318D02*
X668224Y-147985D01*
X673224Y-147985D01*
X675224Y-148818D01*
X676224Y-150485D01*
X676224Y-152152D01*
X675224Y-153818D01*
X673224Y-154652D01*
X668224Y-154652D01*
G54D11*
X679890Y-153818D02*
X687890Y-161318D01*
G54D11*
X679890Y-161318D02*
X687890Y-153818D01*
G54D11*
X722912Y-161318D02*
X722912Y-147985D01*
G54D11*
X718912Y-147985D02*
X726912Y-147985D01*
G54D11*
X730578Y-153818D02*
X738578Y-161318D01*
G54D11*
X730578Y-161318D02*
X738578Y-153818D01*
G54D10*
X787558Y-154100D02*
X771558Y-154100D01*
G54D11*
X300941Y-795455D02*
X308941Y-795455D01*
G54D11*
X304941Y-792121D02*
X304941Y-798788D01*
G54D11*
X320608Y-787955D02*
X312608Y-787955D01*
X312608Y-793788D01*
X313608Y-793788D01*
X315608Y-792955D01*
X317608Y-792955D01*
X319608Y-793788D01*
X320608Y-795455D01*
X320608Y-798788D01*
X319608Y-800455D01*
X317608Y-801288D01*
X315608Y-801288D01*
X313608Y-800455D01*
X312608Y-798788D01*
G54D11*
X324275Y-793788D02*
X328275Y-801288D01*
X332275Y-793788D01*
G54D11*
X154950Y-787967D02*
X159950Y-801300D01*
X164950Y-787967D01*
G54D11*
X168617Y-801300D02*
X168617Y-787967D01*
G54D11*
X168617Y-795967D02*
X169617Y-794300D01*
X171617Y-793800D01*
X173617Y-794300D01*
X174617Y-795967D01*
X174617Y-801300D01*
G54D11*
X209714Y-801324D02*
X209714Y-787991D01*
G54D11*
X205714Y-787991D02*
X213714Y-787991D01*
G54D11*
X217381Y-793824D02*
X225381Y-801324D01*
G54D11*
X217381Y-801324D02*
X225381Y-793824D01*
G54D11*
X260349Y-795420D02*
X263349Y-797086D01*
X264349Y-798753D01*
X264349Y-802086D01*
G54D11*
X256349Y-802086D02*
X256349Y-788753D01*
X261349Y-788753D01*
X263349Y-789586D01*
X264349Y-791253D01*
X264349Y-792920D01*
X263349Y-794586D01*
X261349Y-795420D01*
X256349Y-795420D01*
G54D11*
X268016Y-794586D02*
X276016Y-802086D01*
G54D11*
X268016Y-802086D02*
X276016Y-794586D01*
G54D11*
X715864Y-793348D02*
X720864Y-788348D01*
X720864Y-801681D01*
G54D11*
X730531Y-801681D02*
X730531Y-788348D01*
X724531Y-796681D01*
X724531Y-798348D01*
X732531Y-798348D01*
G54D11*
X771977Y-801569D02*
X763977Y-801569D01*
X763977Y-800736D01*
X764977Y-799069D01*
X770977Y-794069D01*
X771977Y-792402D01*
X771977Y-790736D01*
X770977Y-789069D01*
X768977Y-788236D01*
X766977Y-788236D01*
X764977Y-789069D01*
X763977Y-790736D01*
G54D11*
X775644Y-788236D02*
X783644Y-788236D01*
X782644Y-789902D01*
X780644Y-792402D01*
X778644Y-795736D01*
X777644Y-798236D01*
X777644Y-801569D01*
G54D11*
X811539Y-793235D02*
X816539Y-788235D01*
X816539Y-801568D01*
G54D11*
X820206Y-790735D02*
X821206Y-789068D01*
X823206Y-788235D01*
X825206Y-788235D01*
X827206Y-789068D01*
X828206Y-790735D01*
X828206Y-792401D01*
X827206Y-794068D01*
X825206Y-794901D01*
X827206Y-795735D01*
X828206Y-797401D01*
X828206Y-799068D01*
X827206Y-800735D01*
X825206Y-801568D01*
X823206Y-801568D01*
X821206Y-800735D01*
X820206Y-799068D01*
G54D11*
X867925Y-793236D02*
X872925Y-788236D01*
X872925Y-801569D01*
G54D11*
X884592Y-801569D02*
X876592Y-801569D01*
X876592Y-800736D01*
X877592Y-799069D01*
X883592Y-794069D01*
X884592Y-792402D01*
X884592Y-790736D01*
X883592Y-789069D01*
X881592Y-788236D01*
X879592Y-788236D01*
X877592Y-789069D01*
X876592Y-790736D01*
G54D10*
X578008Y-154100D02*
X562008Y-154100D01*
G54D13*
X390309Y-242817D02*
X390309Y-240594D01*
X399198Y-240594D01*
X399198Y-242817D01*
G54D13*
X392087Y-240594D02*
X392087Y-228372D01*
X394753Y-225039D01*
X397420Y-225039D01*
X397420Y-240594D01*
G54D13*
X404087Y-233928D02*
X405865Y-232817D01*
X407998Y-232817D01*
X409420Y-235039D01*
X409420Y-242817D01*
G54D13*
X408531Y-241706D02*
X409420Y-239483D01*
X408531Y-237261D01*
X406754Y-236817D01*
X404976Y-237261D01*
X404087Y-239483D01*
X404443Y-241706D01*
X405865Y-242817D01*
X406754Y-242817D01*
X407109Y-242817D01*
X408531Y-241706D01*
G54D13*
X414309Y-232817D02*
X419642Y-232817D01*
G54D13*
X416976Y-242817D02*
X416976Y-232817D01*
G54D13*
X424531Y-232817D02*
X424531Y-237261D01*
X425420Y-238372D01*
X429864Y-238372D01*
G54D13*
X429864Y-232817D02*
X429864Y-242817D01*
G54D13*
X434753Y-232817D02*
X434753Y-242817D01*
X440086Y-232817D01*
X440086Y-242817D01*
G54D13*
X444975Y-242817D02*
X444975Y-232817D01*
G54D13*
X447642Y-236150D02*
X450308Y-242817D01*
G54D13*
X444975Y-238372D02*
X450308Y-232817D01*
G54D13*
X455197Y-232817D02*
X455197Y-242817D01*
X460530Y-232817D01*
X460530Y-242817D01*
G54D13*
X470486Y-242817D02*
X470486Y-241706D01*
X475819Y-241706D01*
X475819Y-242817D01*
G54D13*
X471375Y-241706D02*
X471375Y-235039D01*
X473153Y-232817D01*
X474930Y-232817D01*
X474930Y-241706D01*
G54D13*
X480708Y-233928D02*
X482486Y-232817D01*
X484619Y-232817D01*
X486041Y-235039D01*
X486041Y-242817D01*
G54D13*
X485152Y-241706D02*
X486041Y-239483D01*
X485152Y-237261D01*
X483375Y-236817D01*
X481597Y-237261D01*
X480708Y-239483D01*
X481064Y-241706D01*
X482486Y-242817D01*
X483375Y-242817D01*
X483730Y-242817D01*
X485152Y-241706D01*
G54D13*
X494486Y-237261D02*
X496263Y-239483D01*
X496263Y-241706D01*
X495374Y-242817D01*
X490930Y-242817D01*
X490930Y-232817D01*
X494486Y-232817D01*
X495374Y-233928D01*
X495374Y-236150D01*
X494486Y-237261D01*
X490930Y-237261D01*
G54D13*
X501152Y-242817D02*
X502041Y-241706D01*
X502041Y-235039D01*
X503819Y-232817D01*
X506485Y-232817D01*
X506485Y-242817D01*
G54D13*
X516707Y-241706D02*
X515285Y-242817D01*
X513507Y-242817D01*
X511730Y-241706D01*
X511374Y-239483D01*
X511374Y-235706D01*
X512263Y-233483D01*
X514041Y-232817D01*
X515818Y-233483D01*
X516707Y-235039D01*
X516707Y-237261D01*
X511374Y-237261D01*
G54D13*
X521596Y-242817D02*
X521596Y-232817D01*
G54D13*
X521596Y-237261D02*
X526929Y-237261D01*
G54D13*
X526929Y-242817D02*
X526929Y-232817D01*
G54D13*
X531818Y-232817D02*
X531818Y-242817D01*
X537151Y-232817D01*
X537151Y-242817D01*
G54D13*
X542040Y-242817D02*
X545596Y-237261D01*
X547373Y-237261D01*
X543818Y-237261D01*
X542929Y-236150D01*
X542929Y-233928D01*
X543818Y-232817D01*
X547373Y-232817D01*
X547373Y-242817D01*
G54D12*
X740164Y-775615D02*
X732164Y-775615D01*
X732164Y-754282D01*
X740164Y-754282D01*
X743364Y-755615D01*
X744964Y-758282D01*
X744964Y-760948D01*
X743364Y-763615D01*
X740164Y-764948D01*
X743364Y-766282D01*
X744964Y-768948D01*
X744964Y-771615D01*
X743364Y-774282D01*
X740164Y-775615D01*
G54D12*
X732164Y-764948D02*
X740164Y-764948D01*
G54D12*
X750831Y-763615D02*
X750831Y-775615D01*
X755631Y-775615D01*
X758831Y-772948D01*
X758831Y-770282D01*
X755631Y-767615D01*
X750831Y-767615D01*
G54D12*
X765231Y-763615D02*
X765231Y-775615D01*
G54D12*
X771098Y-763615D02*
X783898Y-775615D01*
G54D12*
X771098Y-775615D02*
X783898Y-763615D01*
G54D12*
X797765Y-775082D02*
X799365Y-772415D01*
X799365Y-767082D01*
X797765Y-764415D01*
X794565Y-763615D01*
X791365Y-764415D01*
X789765Y-767082D01*
X789765Y-772415D01*
X791365Y-775082D01*
X794565Y-775615D01*
X797765Y-775082D01*
G54D12*
X805232Y-775615D02*
X805232Y-774282D01*
X814832Y-774282D01*
X814832Y-775615D01*
G54D12*
X806832Y-774282D02*
X806832Y-766282D01*
X810032Y-763615D01*
X813232Y-763615D01*
X813232Y-774282D01*
G54D12*
X820699Y-763615D02*
X820699Y-775615D01*
X825499Y-775615D01*
X828699Y-772948D01*
X828699Y-770282D01*
X825499Y-767615D01*
X820699Y-767615D01*
G54D12*
X835099Y-763615D02*
X835099Y-775615D01*
G54D12*
X168059Y-198367D02*
X168059Y-177033D01*
X180859Y-177033D01*
X180859Y-198367D01*
G54D12*
X186726Y-186367D02*
X186726Y-198367D01*
X196326Y-186367D01*
X196326Y-198367D01*
G54D12*
X202193Y-186367D02*
X211793Y-186367D01*
G54D12*
X206993Y-198367D02*
X206993Y-186367D01*
G54D12*
X217660Y-187700D02*
X220860Y-186367D01*
X224700Y-186367D01*
X227260Y-189033D01*
X227260Y-198367D01*
G54D12*
X225660Y-197033D02*
X227260Y-194367D01*
X225660Y-191700D01*
X222460Y-191167D01*
X219260Y-191700D01*
X217660Y-194367D01*
X218300Y-197033D01*
X220860Y-198367D01*
X222460Y-198367D01*
X223100Y-198367D01*
X225660Y-197033D01*
G54D12*
X233127Y-198367D02*
X233127Y-186367D01*
G54D12*
X233127Y-191700D02*
X242727Y-191700D01*
G54D12*
X242727Y-198367D02*
X242727Y-186367D01*
G54D12*
X248594Y-186367D02*
X248594Y-198367D01*
X258194Y-186367D01*
X258194Y-198367D01*
G54D12*
X273661Y-197033D02*
X271101Y-198367D01*
X267901Y-198367D01*
X264701Y-197033D01*
X264061Y-194367D01*
X264061Y-189833D01*
X265661Y-187167D01*
X268861Y-186367D01*
X272061Y-187167D01*
X273661Y-189033D01*
X273661Y-191700D01*
X264061Y-191700D01*
G54D10*
X375960Y-792752D02*
X359960Y-792752D01*
G54D12*
X167014Y-456804D02*
X175014Y-448804D01*
X175014Y-470138D01*
G54D12*
X193681Y-470138D02*
X180881Y-470138D01*
X180881Y-468804D01*
X182481Y-466138D01*
X192081Y-458138D01*
X193681Y-455471D01*
X193681Y-452804D01*
X192081Y-450138D01*
X188881Y-448804D01*
X185681Y-448804D01*
X182481Y-450138D01*
X180881Y-452804D01*
G54D12*
X199548Y-458138D02*
X205948Y-470138D01*
X212348Y-458138D01*
G54D12*
X218215Y-460804D02*
X231015Y-460804D01*
G54D12*
X236882Y-455471D02*
X249682Y-460804D01*
X236882Y-466138D01*
G54D12*
X268349Y-448804D02*
X255549Y-448804D01*
X255549Y-458138D01*
X257149Y-458138D01*
X260349Y-456804D01*
X263549Y-456804D01*
X266749Y-458138D01*
X268349Y-460804D01*
X268349Y-466138D01*
X266749Y-468804D01*
X263549Y-470138D01*
X260349Y-470138D01*
X257149Y-468804D01*
X255549Y-466138D01*
G54D12*
X274216Y-458138D02*
X280616Y-470138D01*
X287016Y-458138D01*
G54D14*
X384952Y-347056D02*
X319952Y-347056D01*
X319951Y-382057D01*
X384952Y-382057D01*
X384952Y-347056D01*
G54D15*
X389677Y-359358D02*
X389677Y-355025D01*
X401232Y-355025D01*
X401232Y-359358D01*
X400510Y-361091D01*
X399066Y-361958D01*
X391843Y-361958D01*
X390399Y-361091D01*
X389677Y-359358D01*
G54D15*
X389677Y-370335D02*
X389677Y-366002D01*
X401232Y-366002D01*
X401232Y-370335D01*
X400510Y-372068D01*
X399066Y-372935D01*
X391843Y-372935D01*
X390399Y-372068D01*
X389677Y-370335D01*
G54D15*
X396899Y-376979D02*
X401232Y-381312D01*
X389677Y-381312D01*
G54D14*
X376750Y-455525D02*
X326750Y-455525D01*
X326750Y-429525D01*
X376750Y-429525D01*
X376750Y-455525D01*
G54D15*
X326000Y-415053D02*
X330333Y-410720D01*
X330333Y-422275D01*
G54D15*
X334377Y-422275D02*
X334377Y-415775D01*
G54D15*
X334377Y-416930D02*
X336110Y-415775D01*
X337844Y-416208D01*
X338710Y-417220D01*
X338710Y-422275D01*
G54D15*
X338710Y-416930D02*
X340444Y-415775D01*
X342177Y-416208D01*
X343044Y-417220D01*
X343044Y-422275D01*
G54D15*
X347088Y-422275D02*
X347088Y-410720D01*
G54D15*
X349688Y-417942D02*
X352288Y-422275D01*
G54D15*
X347088Y-419386D02*
X352288Y-415775D01*
G54D14*
X376750Y-239625D02*
X326750Y-239625D01*
X326750Y-213625D01*
X376750Y-213625D01*
X376750Y-239625D01*
G54D15*
X293536Y-223501D02*
X297869Y-219167D01*
X297869Y-230723D01*
G54D15*
X301913Y-230723D02*
X301913Y-224223D01*
G54D15*
X301913Y-225379D02*
X303646Y-224223D01*
X305380Y-224656D01*
X306246Y-225667D01*
X306246Y-230723D01*
G54D15*
X306246Y-225379D02*
X307980Y-224223D01*
X309713Y-224656D01*
X310580Y-225667D01*
X310580Y-230723D01*
G54D15*
X314624Y-230723D02*
X314624Y-219167D01*
G54D15*
X317224Y-226390D02*
X319824Y-230723D01*
G54D15*
X314624Y-227834D02*
X319824Y-224223D01*
G54D14*
X376750Y-201525D02*
X326750Y-201525D01*
X326750Y-175525D01*
X376750Y-175525D01*
X376750Y-201525D01*
G54D15*
X288009Y-184109D02*
X288875Y-185553D01*
X288875Y-192775D01*
X288009Y-194220D01*
X286275Y-194942D01*
X284542Y-194942D01*
X282809Y-194220D01*
X281942Y-192775D01*
X281942Y-185553D01*
X282809Y-184109D01*
X284542Y-183386D01*
X286275Y-183386D01*
X288009Y-184109D01*
G54D15*
X337670Y-167697D02*
X337670Y-168275D01*
X336977Y-168275D01*
X336977Y-167697D01*
X337670Y-167697D01*
G54D15*
X293612Y-194942D02*
X292919Y-194942D01*
G54D15*
X297656Y-187720D02*
X301989Y-183386D01*
X301989Y-194942D01*
G54D15*
X306033Y-194942D02*
X306033Y-188442D01*
G54D15*
X306033Y-189598D02*
X307766Y-188442D01*
X309500Y-188875D01*
X310366Y-189886D01*
X310366Y-194942D01*
G54D15*
X310366Y-189598D02*
X312100Y-188442D01*
X313833Y-188875D01*
X314700Y-189886D01*
X314700Y-194942D01*
G54D15*
X318744Y-194942D02*
X318744Y-183386D01*
G54D15*
X321344Y-190609D02*
X323944Y-194942D01*
G54D15*
X318744Y-192053D02*
X323944Y-188442D01*
G36*
X590555Y-782891D02*
X604555Y-782891D01*
X604555Y-792891D01*
X590555Y-792891D01*
X590555Y-782891D01*
G37*
G54D16*
X590555Y-782891D02*
X604555Y-782891D01*
X604555Y-792891D01*
X590555Y-792891D01*
X590555Y-782891D01*
G36*
X558805Y-782891D02*
X572805Y-782891D01*
X572805Y-792891D01*
X558805Y-792891D01*
X558805Y-782891D01*
G37*
G54D16*
X558805Y-782891D02*
X572805Y-782891D01*
X572805Y-792891D01*
X558805Y-792891D01*
X558805Y-782891D01*
G36*
X527055Y-782891D02*
X541055Y-782891D01*
X541055Y-792891D01*
X527055Y-792891D01*
X527055Y-782891D01*
G37*
G54D16*
X527055Y-782891D02*
X541055Y-782891D01*
X541055Y-792891D01*
X527055Y-792891D01*
X527055Y-782891D01*
G36*
X495305Y-782891D02*
X509305Y-782891D01*
X509305Y-792891D01*
X495305Y-792891D01*
X495305Y-782891D01*
G37*
G54D16*
X495305Y-782891D02*
X509305Y-782891D01*
X509305Y-792891D01*
X495305Y-792891D01*
X495305Y-782891D01*
G54D11*
X906025Y-795736D02*
X914025Y-795736D01*
G54D11*
X910025Y-792402D02*
X910025Y-799069D01*
G54D11*
X917692Y-793236D02*
X922692Y-788236D01*
X922692Y-801569D01*
G54D11*
X934359Y-801569D02*
X926359Y-801569D01*
X926359Y-800736D01*
X927359Y-799069D01*
X933359Y-794069D01*
X934359Y-792402D01*
X934359Y-790736D01*
X933359Y-789069D01*
X931359Y-788236D01*
X929359Y-788236D01*
X927359Y-789069D01*
X926359Y-790736D01*
G54D11*
X938026Y-794069D02*
X942026Y-801569D01*
X946026Y-794069D01*
G54D11*
X652025Y-795736D02*
X660025Y-795736D01*
G54D11*
X656025Y-792402D02*
X656025Y-799069D01*
G54D11*
X663692Y-793236D02*
X668692Y-788236D01*
X668692Y-801569D01*
G54D11*
X680359Y-801569D02*
X672359Y-801569D01*
X672359Y-800736D01*
X673359Y-799069D01*
X679359Y-794069D01*
X680359Y-792402D01*
X680359Y-790736D01*
X679359Y-789069D01*
X677359Y-788236D01*
X675359Y-788236D01*
X673359Y-789069D01*
X672359Y-790736D01*
G54D11*
X684026Y-794069D02*
X688026Y-801569D01*
X692026Y-794069D01*
G54D13*
X359362Y-771543D02*
X359362Y-761543D01*
G54D13*
X363362Y-764876D02*
X367362Y-771543D01*
G54D13*
X359362Y-767098D02*
X367362Y-761543D01*
G54D13*
X372251Y-771543D02*
X372251Y-761543D01*
G54D13*
X372251Y-765987D02*
X380251Y-765987D01*
G54D13*
X380251Y-771543D02*
X380251Y-761543D01*
G54D13*
X386206Y-770654D02*
X386206Y-771543D01*
X385140Y-771543D01*
X385140Y-770654D01*
X386206Y-770654D01*
G54D13*
X386206Y-771543D02*
X385140Y-771543D01*
G54D13*
X396252Y-771543D02*
X402918Y-753765D01*
X409585Y-771543D01*
G54D13*
X398918Y-764876D02*
X406918Y-764876D01*
G54D13*
X419807Y-765987D02*
X422474Y-768210D01*
X422474Y-770432D01*
X421140Y-771543D01*
X414474Y-771543D01*
X414474Y-761543D01*
X419807Y-761543D01*
X421140Y-762654D01*
X421140Y-764876D01*
X419807Y-765987D01*
X414474Y-765987D01*
G54D13*
X427363Y-762654D02*
X430029Y-761543D01*
X433229Y-761543D01*
X435363Y-763765D01*
X435363Y-771543D01*
G54D13*
X434029Y-770432D02*
X435363Y-768210D01*
X434029Y-765987D01*
X431363Y-765543D01*
X428696Y-765987D01*
X427363Y-768210D01*
X427896Y-770432D01*
X430029Y-771543D01*
X431363Y-771543D01*
X431896Y-771543D01*
X434029Y-770432D01*
G54D13*
X440252Y-761543D02*
X440252Y-775987D01*
G54D13*
X440252Y-768210D02*
X441585Y-771098D01*
X444252Y-771543D01*
X446918Y-771098D01*
X448252Y-768876D01*
X448252Y-764432D01*
X446918Y-762210D01*
X444252Y-761543D01*
X441585Y-762210D01*
X440252Y-764876D01*
G54D13*
X453141Y-761543D02*
X453141Y-771543D01*
X461141Y-761543D01*
X461141Y-771543D01*
G54D13*
X466030Y-771543D02*
X471363Y-765987D01*
X474030Y-765987D01*
X468696Y-765987D01*
X467363Y-764876D01*
X467363Y-762654D01*
X468696Y-761543D01*
X474030Y-761543D01*
X474030Y-771543D01*
G54D11*
X801440Y-155449D02*
X809440Y-155449D01*
G54D11*
X805440Y-152116D02*
X805440Y-158782D01*
G54D11*
X813106Y-150449D02*
X814106Y-148782D01*
X816106Y-147949D01*
X818106Y-147949D01*
X820106Y-148782D01*
X821106Y-150449D01*
X821106Y-152116D01*
X820106Y-153782D01*
X818106Y-154616D01*
X820106Y-155449D01*
X821106Y-157116D01*
X821106Y-158782D01*
X820106Y-160449D01*
X818106Y-161282D01*
X816106Y-161282D01*
X814106Y-160449D01*
X813106Y-158782D01*
G54D11*
X825574Y-160616D02*
X825574Y-161282D01*
X824774Y-161282D01*
X824774Y-160616D01*
X825574Y-160616D01*
G54D11*
X825574Y-161282D02*
X824774Y-161282D01*
G54D11*
X829240Y-150449D02*
X830240Y-148782D01*
X832240Y-147949D01*
X834240Y-147949D01*
X836240Y-148782D01*
X837240Y-150449D01*
X837240Y-152116D01*
X836240Y-153782D01*
X834240Y-154616D01*
X836240Y-155449D01*
X837240Y-157116D01*
X837240Y-158782D01*
X836240Y-160449D01*
X834240Y-161282D01*
X832240Y-161282D01*
X830240Y-160449D01*
X829240Y-158782D01*
G54D11*
X840908Y-153782D02*
X844908Y-161282D01*
X848908Y-153782D01*
G54D11*
X858590Y-152949D02*
X863590Y-147949D01*
X863590Y-161282D01*
G54D11*
X867256Y-147949D02*
X867256Y-161282D01*
X872256Y-152949D01*
X877256Y-161282D01*
X877256Y-147949D01*
G54D11*
X880924Y-161282D02*
X880924Y-153782D01*
G54D11*
X880924Y-151282D02*
X880924Y-151282D01*
G54D11*
X884590Y-161282D02*
X884590Y-153782D01*
G54D11*
X884590Y-155449D02*
X886590Y-153782D01*
X888590Y-153782D01*
G54D11*
X898258Y-160449D02*
X896658Y-161282D01*
X894658Y-161282D01*
X892658Y-160449D01*
X892258Y-158782D01*
X892258Y-155949D01*
X893258Y-154282D01*
X895258Y-153782D01*
X897258Y-154282D01*
X898258Y-155449D01*
X898258Y-157116D01*
X892258Y-157116D01*
G54D14*
X877373Y-315861D02*
X827373Y-315861D01*
X827373Y-293861D01*
X877373Y-293861D01*
X877373Y-315861D01*
G54D15*
X831823Y-286611D02*
X831823Y-275056D01*
X826623Y-282278D01*
X826623Y-283723D01*
X833556Y-283723D01*
G54D15*
X838293Y-286034D02*
X838293Y-286611D01*
X837600Y-286611D01*
X837600Y-286034D01*
X838293Y-286034D01*
G54D15*
X838293Y-286611D02*
X837600Y-286611D01*
G54D15*
X842337Y-275056D02*
X849270Y-275056D01*
X848403Y-276500D01*
X846670Y-278667D01*
X844937Y-281556D01*
X844070Y-283723D01*
X844070Y-286611D01*
G54D15*
X853314Y-286611D02*
X853314Y-275056D01*
G54D15*
X855914Y-282278D02*
X858514Y-286611D01*
G54D15*
X853314Y-283723D02*
X858514Y-280111D01*
G54D14*
X462387Y-221550D02*
X462387Y-171550D01*
X484387Y-171550D01*
X484387Y-221550D01*
X462387Y-221550D01*
G54D15*
X503193Y-195754D02*
X503193Y-202687D01*
X502470Y-202687D01*
X501026Y-201820D01*
X496693Y-196620D01*
X495248Y-195754D01*
X493804Y-195754D01*
X492359Y-196620D01*
X491637Y-198354D01*
X491637Y-200087D01*
X492359Y-201820D01*
X493804Y-202687D01*
G54D15*
X502615Y-191017D02*
X503193Y-191017D01*
X503193Y-191710D01*
X502615Y-191710D01*
X502615Y-191017D01*
G54D15*
X503193Y-191017D02*
X503193Y-191710D01*
G54D15*
X503193Y-180040D02*
X503193Y-186973D01*
X502470Y-186973D01*
X501026Y-186106D01*
X496693Y-180906D01*
X495248Y-180040D01*
X493804Y-180040D01*
X492359Y-180906D01*
X491637Y-182640D01*
X491637Y-184373D01*
X492359Y-186106D01*
X493804Y-186973D01*
G54D15*
X503193Y-175996D02*
X491637Y-175996D01*
G54D15*
X498859Y-173396D02*
X503193Y-170796D01*
G54D15*
X500304Y-175996D02*
X496693Y-170796D01*
G54D14*
X411587Y-221550D02*
X411587Y-171550D01*
X433587Y-171550D01*
X433587Y-221550D01*
X411587Y-221550D01*
G54D15*
X452393Y-195754D02*
X452393Y-202687D01*
X451670Y-202687D01*
X450226Y-201820D01*
X445893Y-196620D01*
X444448Y-195754D01*
X443004Y-195754D01*
X441559Y-196620D01*
X440837Y-198354D01*
X440837Y-200087D01*
X441559Y-201820D01*
X443004Y-202687D01*
G54D15*
X451815Y-191017D02*
X452393Y-191017D01*
X452393Y-191710D01*
X451815Y-191710D01*
X451815Y-191017D01*
G54D15*
X452393Y-191017D02*
X452393Y-191710D01*
G54D15*
X452393Y-180040D02*
X452393Y-186973D01*
X451670Y-186973D01*
X450226Y-186106D01*
X445893Y-180906D01*
X444448Y-180040D01*
X443004Y-180040D01*
X441559Y-180906D01*
X440837Y-182640D01*
X440837Y-184373D01*
X441559Y-186106D01*
X443004Y-186973D01*
G54D15*
X452393Y-175996D02*
X440837Y-175996D01*
G54D15*
X448059Y-173396D02*
X452393Y-170796D01*
G54D15*
X449504Y-175996D02*
X445893Y-170796D01*
G54D12*
X744565Y-198367D02*
X744565Y-195700D01*
X760565Y-195700D01*
X760565Y-198367D01*
G54D12*
X747765Y-195700D02*
X747765Y-181033D01*
X752565Y-177033D01*
X757365Y-177033D01*
X757365Y-195700D01*
G54D12*
X767712Y-197300D02*
X767712Y-198367D01*
X766432Y-198367D01*
X766432Y-197300D01*
X767712Y-197300D01*
G54D12*
X767712Y-198367D02*
X766432Y-198367D01*
G54D12*
X773579Y-186367D02*
X783179Y-186367D01*
G54D12*
X778379Y-198367D02*
X778379Y-186367D01*
G54D12*
X798646Y-197033D02*
X796086Y-198367D01*
X792886Y-198367D01*
X789686Y-197033D01*
X789046Y-194367D01*
X789046Y-189833D01*
X790646Y-187167D01*
X793846Y-186367D01*
X797046Y-187167D01*
X798646Y-189033D01*
X798646Y-191700D01*
X789046Y-191700D01*
G54D12*
X804513Y-198367D02*
X804513Y-186367D01*
X810913Y-193033D01*
X817313Y-186367D01*
X817313Y-198367D01*
G54D12*
X823180Y-198367D02*
X823180Y-186367D01*
X832780Y-186367D01*
X832780Y-198367D01*
G54D12*
X848247Y-197033D02*
X845687Y-198367D01*
X842487Y-198367D01*
X839287Y-197033D01*
X838647Y-194367D01*
X838647Y-189833D01*
X840247Y-187167D01*
X843447Y-186367D01*
X846647Y-187167D01*
X848247Y-189033D01*
X848247Y-191700D01*
X838647Y-191700D01*
G54D12*
X854114Y-186367D02*
X854114Y-203700D01*
G54D12*
X854114Y-194367D02*
X855714Y-197833D01*
X858914Y-198367D01*
X862114Y-197833D01*
X863714Y-195167D01*
X863714Y-189833D01*
X862114Y-187167D01*
X858914Y-186367D01*
X855714Y-187167D01*
X854114Y-190367D01*
G54D12*
X869581Y-187700D02*
X872781Y-186367D01*
X876621Y-186367D01*
X879181Y-189033D01*
X879181Y-198367D01*
G54D12*
X877581Y-197033D02*
X879181Y-194367D01*
X877581Y-191700D01*
X874381Y-191167D01*
X871181Y-191700D01*
X869581Y-194367D01*
X870221Y-197033D01*
X872781Y-198367D01*
X874381Y-198367D01*
X875021Y-198367D01*
X877581Y-197033D01*
G54D12*
X885048Y-186367D02*
X894648Y-186367D01*
G54D12*
X889848Y-198367D02*
X889848Y-186367D01*
G54D12*
X900515Y-186367D02*
X906915Y-198367D01*
X913315Y-186367D01*
G54D12*
X906915Y-198367D02*
X905315Y-202367D01*
X903715Y-203700D01*
X902115Y-203700D01*
G54D12*
X919182Y-186367D02*
X919182Y-203700D01*
G54D12*
X919182Y-194367D02*
X920782Y-197833D01*
X923982Y-198367D01*
X927182Y-197833D01*
X928782Y-195167D01*
X928782Y-189833D01*
X927182Y-187167D01*
X923982Y-186367D01*
X920782Y-187167D01*
X919182Y-190367D01*
G54D12*
X934649Y-186367D02*
X934649Y-198367D01*
X939449Y-198367D01*
X942649Y-195700D01*
X942649Y-193033D01*
X939449Y-190367D01*
X934649Y-190367D01*
G54D12*
X949049Y-186367D02*
X949049Y-198367D01*
M02*
